# xmcd
#
# Track frame offsets: 
#        150
#        26856
#        42777
#        65275
#        78780
#        102584
#        115188
#        131142
#        141577
#        152442
#        168190
#        193170
#
# Disc length: 2903 seconds
#
# Revision: 0
# Processed by: cddbd v1.5.2PL0 Copyright (c) Steve Scherf et al.
# Submitted via: ExactAudioCopy v0.99pb3
#
DISCID=a20b550c
DTITLE=Floyd Lee - Mean Blues
DYEAR=2001
DGENRE=Blues
TTITLE0=Down In Lamar
TTITLE1=How Long Can You Go
TTITLE2=Mean Blues
TTITLE3=High Maintenance Woman
TTITLE4=Devil At Your Doorstep
TTITLE5=Third Degree Charm
TTITLE6=See Saw Sally
TTITLE7=Lose My Number
TTITLE8=Hard Working Woman
TTITLE9=Pea Patch Blues
TTITLE10=When You Break A Young Girl's Heart
TTITLE11=Come Home
EXTD=
EXTT0=
EXTT1=
EXTT2=
EXTT3=
EXTT4=
EXTT5=
EXTT6=
EXTT7=
EXTT8=
EXTT9=
EXTT10=
EXTT11=
PLAYORDER=
